<svg
      xmlns="http://www.w3.org/2000/svg"
      width="814.893"
      height="280.225"
      viewBox="0 0 814.893 280.225"
    >
      <g
        fill="none"
        fill-rule="evenodd"
        stroke="#000"
        stroke-linecap="round"
        stroke-width="1.945"
        font-size="12"        
      >
        <path
          d="M0 277.002v-37.793q11.719 2.93 21.387 2.93a37.576 37.576 0 008.025-.799q8.804-1.926 13.361-8.503 6.446-9.302 6.446-29.077V3.076h45.41v200.391q0 25.314-7.81 42.485a59.638 59.638 0 01-9.329 14.644 54.785 54.785 0 01-27.725 16.84q-9.024 2.44-19.834 2.745a110.77 110.77 0 01-3.124.044 123.922 123.922 0 01-12.648-.612q-6.264-.643-11.696-1.965A70.228 70.228 0 010 277.002z"
          vector-effect="non-scaling-stroke"
        ></path>
        <path
          d="M229.834 134.766V96.973h84.961v111.035q-20.654 6.738-38.892 9.448a253.324 253.324 0 01-37.28 2.71 131.896 131.896 0 01-29.351-3.067q-27.523-6.282-44.697-25.424-21.563-24.035-24.936-65.74a199.489 199.489 0 01-.625-16.072 145.879 145.879 0 013.505-32.95q5.829-25.153 21.351-42.838a91.593 91.593 0 014.807-5.071A97.828 97.828 0 01214.025 4.25Q229.486.332 247.803.026A187.012 187.012 0 01250.928 0q32.959 0 63.574 13.184l-15.088 36.328a107.759 107.759 0 00-48.779-11.719 70.96 70.96 0 00-21.603 3.139 57.008 57.008 0 00-25.565 16.636q-17.291 19.292-17.714 51.548a123.999 123.999 0 00-.011 1.626q0 34.864 14.282 53.247a46.309 46.309 0 0030.229 17.504 69.499 69.499 0 0011.3.88 146.893 146.893 0 0028.857-2.93v-44.677h-40.576z"
          vector-effect="non-scaling-stroke"
        ></path>
        <path
          d="M498.047 217.236h-41.602L404.883 49.219h-1.319q2.401 44.229 2.731 63.057a308.973 308.973 0 01.053 5.351v99.609h-40.577V3.076h61.817l50.683 163.77h.879l53.76-163.77h61.817v214.16h-42.334V115.869q0-6.168.162-13.959a994.742 994.742 0 01.057-2.594q.22-9.375 1.978-49.804h-1.319l-55.224 167.724z"
          vector-effect="non-scaling-stroke"
        ></path>
        <path
          d="M729.932 134.766V96.973h84.961v111.035q-20.655 6.738-38.892 9.448a253.324 253.324 0 01-37.28 2.71 131.896 131.896 0 01-29.351-3.067q-27.523-6.282-44.697-25.424-21.564-24.035-24.936-65.74a199.489 199.489 0 01-.626-16.072 145.879 145.879 0 013.505-32.95q5.829-25.153 21.352-42.838a91.593 91.593 0 014.806-5.071A97.828 97.828 0 01714.122 4.25Q729.584.332 747.9.026A187.012 187.012 0 01751.025 0q32.959 0 63.575 13.184l-15.088 36.328a107.759 107.759 0 00-48.78-11.719 70.96 70.96 0 00-21.602 3.139 57.008 57.008 0 00-25.566 16.636q-17.291 19.292-17.714 51.548a123.999 123.999 0 00-.01 1.626q0 34.864 14.282 53.247a46.309 46.309 0 0030.229 17.504 69.499 69.499 0 0011.299.88 146.893 146.893 0 0028.858-2.93v-44.677h-40.576z"
          vector-effect="non-scaling-stroke"
        ></path>
      </g>
    </svg>